<svg width="24" height="23" viewBox="0 0 24 23" fill="none" xmlns="http://www.w3.org/2000/svg">
<path d="M20.9444 2.42105H19.6667V0.605263C19.6667 0.270986 19.3806 0 19.0278 0H17.75C17.3972 0 17.1111 0.270986 17.1111 0.605263V2.42105H6.88889V0.605263C6.88889 0.270986 6.60285 0 6.25 0H4.97222C4.61937 0 4.33333 0.270986 4.33333 0.605263V2.42105H3.05556C1.64416 2.42105 0.5 3.50499 0.5 4.84211V20.5789C0.5 21.9161 1.64416 23 3.05556 23H20.9444C22.3558 23 23.5 21.9161 23.5 20.5789V4.84211C23.5 3.50499 22.3558 2.42105 20.9444 2.42105ZM20.9444 20.5789H3.05556V7.26316H20.9444V20.5789ZM11.3611 12.1053H12.6389C12.9917 12.1053 13.2778 11.8343 13.2778 11.5V10.2895C13.2778 9.9552 12.9917 9.68421 12.6389 9.68421H11.3611C11.0083 9.68421 10.7222 9.9552 10.7222 10.2895V11.5C10.7222 11.8343 11.0083 12.1053 11.3611 12.1053ZM16.4722 12.1053H17.75C18.1028 12.1053 18.3889 11.8343 18.3889 11.5V10.2895C18.3889 9.9552 18.1028 9.68421 17.75 9.68421H16.4722C16.1194 9.68421 15.8333 9.9552 15.8333 10.2895V11.5C15.8333 11.8343 16.1194 12.1053 16.4722 12.1053ZM6.25 12.1053H7.52778C7.88063 12.1053 8.16667 11.8343 8.16667 11.5V10.2895C8.16667 9.9552 7.88063 9.68421 7.52778 9.68421H6.25C5.89715 9.68421 5.61111 9.9552 5.61111 10.2895V11.5C5.61111 11.8343 5.89715 12.1053 6.25 12.1053ZM11.3611 16.9474H12.6389C12.9917 16.9474 13.2778 16.6764 13.2778 16.3421V15.1316C13.2778 14.7973 12.9917 14.5263 12.6389 14.5263H11.3611C11.0083 14.5263 10.7222 14.7973 10.7222 15.1316V16.3421C10.7222 16.6764 11.0083 16.9474 11.3611 16.9474ZM6.25 16.9474H7.52778C7.88063 16.9474 8.16667 16.6764 8.16667 16.3421V15.1316C8.16667 14.7973 7.88063 14.5263 7.52778 14.5263H6.25C5.89715 14.5263 5.61111 14.7973 5.61111 15.1316V16.3421C5.61111 16.6764 5.89715 16.9474 6.25 16.9474Z" fill="#DDAD77"/>
</svg>
