<svg width="33" height="32" viewBox="0 0 33 32" fill="none" xmlns="http://www.w3.org/2000/svg">
<circle cx="16.5" cy="16" r="16" fill="#DDAD77"/>
<path d="M7.5 16.4058V15.5945C7.5 15.3705 7.70519 15.1889 7.95831 15.1889H22.7801L18.7011 11.5867C18.6144 11.5105 18.5655 11.4068 18.5655 11.2987C18.5655 11.1905 18.6144 11.0868 18.7011 11.0107L19.3519 10.4427C19.438 10.3659 19.5551 10.3228 19.6773 10.3228C19.7995 10.3228 19.9167 10.3659 20.0027 10.4427L25.6308 15.416C25.7597 15.53 25.8323 15.6847 25.8324 15.846V16.1543C25.8303 16.3153 25.7581 16.4693 25.6308 16.5843L20.0027 21.5576C19.9167 21.6344 19.7995 21.6776 19.6773 21.6776C19.5551 21.6776 19.438 21.6344 19.3519 21.5576L18.7011 20.9816C18.6149 20.9068 18.5663 20.8045 18.5663 20.6976C18.5663 20.5908 18.6149 20.4884 18.7011 20.4137L22.7801 16.8115H7.95831C7.70519 16.8115 7.5 16.6299 7.5 16.4058Z" fill="white"/>
</svg>
